<svg xmlns="http://www.w3.org/2000/svg" width="735" height="716" viewBox="0 0 735 716">
<g>
<path d="M 407.92 333.49 C402.66,335.65 399.51,336.20 390.50,336.52 C378.07,336.97 373.32,336.21 366.36,332.67 C351.93,325.35 340.53,310.83 334.80,292.50 C332.11,283.88 331.38,267.21 333.33,259.00 C335.33,250.57 342.68,236.40 348.60,229.54 C363.74,212.00 380.84,204.97 400.21,208.31 C405.00,209.14 410.36,210.53 412.11,211.41 C413.87,212.28 415.71,213.00 416.21,213.00 C417.45,213.00 428.87,220.70 432.35,223.89 C437.09,228.22 443.56,239.02 446.50,247.50 C451.22,261.14 451.01,279.08 445.96,292.77 C438.32,313.46 426.92,325.67 407.92,333.49 ZM 356.00 588.14 C351.33,588.50 345.41,589.12 342.86,589.52 C338.51,590.19 337.99,590.02 334.39,586.71 C331.09,583.70 330.55,582.59 330.55,578.97 C330.55,575.43 331.07,574.30 333.77,572.05 C337.50,568.94 337.76,567.44 335.07,564.56 C326.36,555.23 309.27,523.66 301.12,501.86 C288.77,468.82 288.06,452.47 297.46,418.50 C304.05,394.71 311.36,377.29 321.67,360.77 C322.95,358.72 324.00,356.80 324.00,356.50 C324.00,355.12 333.30,343.41 335.27,342.31 C338.26,340.65 341.51,340.70 344.91,342.45 C348.72,344.43 350.36,348.75 349.54,354.70 C348.95,358.98 349.41,360.75 353.75,371.00 C356.42,377.33 359.26,384.06 360.06,385.97 C360.85,387.87 364.57,395.72 368.32,403.41 C372.44,411.84 375.35,419.20 375.68,421.96 C376.17,426.09 375.91,426.88 373.10,429.90 C370.11,433.09 369.70,433.22 364.28,432.77 C361.16,432.51 358.43,431.78 358.22,431.15 C358.01,430.52 355.93,430.00 353.61,430.00 C344.91,430.00 329.23,440.07 316.86,453.58 C311.39,459.56 311.29,459.78 311.20,465.89 C311.14,470.45 311.50,472.25 312.56,472.66 C313.35,472.96 314.00,474.01 314.00,474.99 C314.00,477.15 318.30,490.25 321.72,498.50 C334.24,528.72 344.48,545.54 361.45,563.75 C371.47,574.51 372.47,576.69 369.93,582.26 C368.18,586.09 364.99,587.44 356.00,588.14 ZM 379.94 316.05 C385.90,317.86 397.59,316.33 404.76,312.79 C421.32,304.63 432.49,281.12 429.02,261.73 C426.01,244.88 418.23,235.36 403.09,230.02 C394.44,226.97 384.26,227.48 377.74,231.31 C373.69,233.68 373.22,234.35 372.76,238.46 C372.14,243.96 370.98,245.47 365.06,248.48 C355.75,253.22 352.74,259.10 352.75,272.50 C352.76,285.48 356.71,296.58 364.46,305.41 C369.71,311.39 373.77,314.18 379.94,316.05 ZM 317.00 423.25 C317.00,425.61 317.60,425.48 321.86,422.16 C327.14,418.04 336.12,413.94 342.73,412.64 C349.43,411.31 350.14,409.95 346.73,404.94 C345.45,403.05 343.31,398.80 341.99,395.50 C340.66,392.20 338.99,388.61 338.29,387.53 C337.58,386.44 337.00,384.80 337.00,383.88 C337.00,381.78 334.46,380.73 333.21,382.31 C332.10,383.72 325.00,398.88 325.00,399.84 C325.00,400.21 323.20,405.23 321.00,411.00 C318.80,416.77 317.00,422.28 317.00,423.25 Z" fill="rgb(5,5,5)"/>
<path d="M 360.27 432.13 C351.70,431.31 345.80,431.93 339.91,434.73 C345.19,431.73 350.00,430.00 353.61,430.00 C355.93,430.00 358.01,430.52 358.22,431.15 C358.33,431.48 359.11,431.83 360.27,432.13 ZM 311.27 463.21 C311.54,464.43 312.01,466.05 312.53,467.50 C313.32,469.70 313.98,472.69 313.98,474.14 C313.99,475.01 314.19,476.26 314.57,477.83 C314.21,476.47 314.00,475.47 314.00,474.99 C314.00,474.01 313.35,472.96 312.56,472.66 C311.50,472.25 311.14,470.45 311.20,465.89 C311.21,464.84 311.23,463.97 311.27,463.21 ZM 367.32 432.96 C370.02,433.00 370.80,432.36 373.08,429.92 L 369.93 433.28 ZM 342.82 540.22 C348.19,548.27 354.69,556.50 361.45,563.75 C354.26,556.03 348.28,548.57 342.82,540.22 ZM 323.45 446.98 C318.59,451.56 314.15,456.42 312.16,459.38 C312.91,457.92 314.30,456.38 316.86,453.58 C318.97,451.27 321.19,449.06 323.45,446.98 ZM 318.71 490.64 C321.80,498.94 326.06,508.96 330.39,517.99 C327.55,512.12 324.70,505.69 321.72,498.50 C320.75,496.15 319.70,493.41 318.71,490.64 Z" fill="rgb(79,79,79)"/>
<path d="M 360.27 432.13 C361.35,432.41 362.77,432.65 364.28,432.77 C365.53,432.88 366.51,432.95 367.32,432.96 L 369.35 433.21 C367.86,434.32 366.80,434.71 366.08,434.40 C365.21,434.03 360.56,433.50 355.75,433.24 C346.43,432.72 343.74,433.37 336.50,437.86 C334.30,439.22 332.43,440.15 332.34,439.92 C332.31,439.83 332.17,439.84 331.94,439.95 C334.65,437.95 337.33,436.19 339.91,434.73 C345.80,431.93 351.70,431.31 360.27,432.13 ZM 331.89 416.30 C335.63,414.55 339.42,413.00 340.40,413.00 C341.27,413.00 343.09,412.04 344.45,410.86 C346.37,409.19 346.70,408.31 345.94,406.90 C345.41,405.90 345.07,404.73 345.19,404.29 C345.31,403.86 344.46,401.40 343.30,398.84 C342.21,396.43 341.01,393.50 340.54,392.09 C341.03,393.18 341.53,394.36 341.99,395.50 C343.31,398.80 345.45,403.05 346.73,404.94 C350.14,409.95 349.43,411.31 342.73,412.64 C339.45,413.29 335.59,414.62 331.89,416.30 ZM 317.00 423.25 C317.00,422.28 318.80,416.77 321.00,411.00 C321.15,410.60 321.30,410.21 321.45,409.82 C320.06,413.69 319.00,417.63 319.00,419.06 C319.00,421.30 319.46,422.00 320.94,422.00 C321.45,422.00 321.97,421.90 322.42,421.73 C322.23,421.87 322.04,422.02 321.86,422.16 C317.60,425.48 317.00,425.61 317.00,423.25 ZM 323.55 420.93 C323.99,420.36 326.28,419.06 329.05,417.68 C327.07,418.70 325.19,419.80 323.55,420.93 ZM 374.29 428.56 C375.96,426.55 376.09,425.43 375.69,422.07 C376.10,425.49 376.11,426.52 374.29,428.56 ZM 322.28 407.60 C323.86,403.37 325.00,400.13 325.00,399.84 C325.00,399.35 326.84,395.18 328.79,391.02 C326.84,395.18 325.00,399.36 325.00,399.86 C325.00,400.22 323.80,403.62 322.28,407.60 ZM 374.65 418.09 C373.40,414.46 371.14,409.18 368.32,403.41 C371.19,409.28 373.41,414.47 374.65,418.09 ZM 323.45 446.98 C323.78,446.67 324.11,446.37 324.45,446.07 C323.44,447.00 322.41,447.97 321.40,448.95 C322.07,448.29 322.75,447.63 323.45,446.98 ZM 311.27 463.21 C311.28,463.13 311.28,463.05 311.29,462.97 C311.31,463.22 311.35,463.49 311.40,463.76 C311.35,463.57 311.31,463.39 311.27,463.21 Z" fill="rgb(174,174,174)"/>
<path d="M 0.00 358.00 L 0.00 0.00 L 367.50 0.00 L 735.00 0.00 L 735.00 358.00 L 735.00 716.00 L 367.50 716.00 L 0.00 716.00 L 0.00 358.00 ZM 356.00 588.14 C364.99,587.44 368.18,586.09 369.93,582.26 C372.47,576.69 371.47,574.51 361.45,563.75 C352.05,553.67 343.17,541.70 337.09,530.96 C327.05,513.22 314.03,481.18 313.98,474.14 C313.98,472.69 313.32,469.70 312.53,467.50 C310.31,461.35 310.59,460.43 316.71,453.74 C322.23,447.71 332.01,439.06 332.34,439.92 C332.43,440.15 334.30,439.22 336.50,437.86 C343.74,433.37 346.43,432.72 355.75,433.24 C360.56,433.50 365.21,434.03 366.08,434.40 C367.16,434.87 369.05,433.75 371.96,430.92 C376.08,426.93 376.23,426.57 375.69,422.07 C375.35,419.17 372.53,412.02 368.32,403.41 C364.57,395.72 360.85,387.87 360.06,385.97 C359.26,384.06 356.42,377.33 353.75,371.00 C349.41,360.75 348.95,358.98 349.54,354.70 C350.36,348.75 348.72,344.43 344.91,342.45 C341.51,340.70 338.26,340.65 335.27,342.31 C333.30,343.41 324.00,355.12 324.00,356.50 C324.00,356.80 322.95,358.72 321.67,360.77 C311.36,377.29 304.05,394.71 297.46,418.50 C288.06,452.47 288.77,468.82 301.12,501.86 C309.27,523.66 326.36,555.23 335.07,564.56 C337.76,567.44 337.50,568.94 333.77,572.05 C331.07,574.30 330.55,575.43 330.55,578.97 C330.55,582.59 331.09,583.70 334.39,586.71 C337.99,590.02 338.51,590.19 342.86,589.52 C345.41,589.12 351.33,588.50 356.00,588.14 ZM 407.92 333.49 C426.92,325.67 438.32,313.46 445.96,292.77 C451.01,279.08 451.22,261.14 446.50,247.50 C443.56,239.02 437.09,228.22 432.35,223.89 C428.87,220.70 417.45,213.00 416.21,213.00 C415.71,213.00 413.87,212.28 412.11,211.41 C410.36,210.53 405.00,209.14 400.21,208.31 C380.84,204.97 363.74,212.00 348.60,229.54 C342.68,236.40 335.33,250.57 333.33,259.00 C331.38,267.21 332.11,283.88 334.80,292.50 C340.53,310.83 351.93,325.35 366.36,332.67 C373.32,336.21 378.07,336.97 390.50,336.52 C399.51,336.20 402.66,335.65 407.92,333.49 ZM 319.00 419.06 C319.00,417.45 320.35,412.62 322.00,408.34 C323.65,404.05 325.00,400.24 325.00,399.86 C325.00,398.89 332.08,383.74 333.21,382.31 C334.46,380.73 337.00,381.78 337.00,383.88 C337.00,384.80 337.61,386.44 338.37,387.53 C339.12,388.61 340.06,390.55 340.46,391.84 C340.86,393.13 342.14,396.28 343.30,398.84 C344.46,401.40 345.31,403.86 345.19,404.29 C345.07,404.73 345.41,405.90 345.94,406.90 C346.70,408.31 346.37,409.19 344.45,410.86 C343.09,412.04 341.27,413.00 340.40,413.00 C338.37,413.00 324.35,419.63 323.51,420.98 C323.17,421.54 322.01,422.00 320.94,422.00 C319.46,422.00 319.00,421.30 319.00,419.06 ZM 379.94 316.05 C373.77,314.18 369.71,311.39 364.46,305.41 C356.71,296.58 352.76,285.48 352.75,272.50 C352.74,259.10 355.75,253.22 365.06,248.48 C370.98,245.47 372.14,243.96 372.76,238.46 C373.22,234.35 373.69,233.68 377.74,231.31 C384.26,227.48 394.44,226.97 403.09,230.02 C418.23,235.36 426.01,244.88 429.02,261.73 C432.49,281.12 421.32,304.63 404.76,312.79 C397.59,316.33 385.90,317.86 379.94,316.05 Z" fill="rgb(243,243,243)"/>
</g>
</svg>